<?xml version="1.0"?>
<svg version="1.1" xmlns="http://www.w3.org/2000/svg" width="400" height="55" style=""><path fill="#f70088" d="M29.805,47.065q-0.84,1.295-0.84,1.68t0.315,0.56q0,0.035-0.63,0.525q-0.56,0.28-1.26,0.28t-1.015-0.1575t-0.21-0.5075q0.49-1.575,3.675-6.3175t4.27-6.7025q2.345-4.235,2.345-6.755q0-1.05-0.35-1.785q-0.7-1.435-3.325-1.435q-4.095,0-8.47,3.535q-3.5,2.835-5.355,6.0025t-1.855,5.6525q0,3.57,3.15,3.64l0.28,0q4.025,0,6.23-2.905q0.84-1.155,0.84-1.96t-0.35-1.015q-0.035-0.035-0.035-0.14t0.21-0.105q0.91,0,0.91,1.19q0,0.735-0.7175,1.995t-2.5375,2.38t-4.235,1.12t-3.85-1.505t-1.435-3.955q0-5.53,7.21-11.305q1.855-1.47,4.8825-2.415t5.7925-0.945t3.7625,0.9625t0.9975,2.5725q0,2.45-1.995,6.615q-0.63,1.295-2.835,4.725l2.695-3.43q1.96-2.555,6.79-7.28q1.05-1.015,2.3275-1.6975t2.1875-0.6825q1.26,0,1.26,1.33q0,1.155-1.1025,3.4825t-2.2225,4.41t-1.365,2.73t-0.35,1.0325t-0.14,0.42q0.105-0.175,2.31-2.6775t6.51-6.2475l5.6-4.62q0.665-0.56,1.19-0.56t0.8575,0.875t0.3325,1.4175t-1.68,2.2575q-4.375,4.48-7.42,9.8t-3.045,7.595q0,0.595,0.21,0.8225t0.665,0.14t1.9075-0.7175t1.9075-0.735q0.175,0.07,0.175,0.175q0,0.525-1.8375,1.47t-2.765,0.945t-1.1375-0.315q-0.63-0.91-0.63-2.205q0-3.01,3.22-8.645q2.065-3.535,6.37-9.52q-3.36,2.73-9.1,8.365t-7.525,8.82q-0.91,1.645-2.205,1.645q-0.595,0-0.595-0.42q0-0.14,0.7175-1.26t3.1675-5.25q6.02-10.465,6.02-12.6q0-0.56-0.385-0.56q-0.56,0-1.645,0.945q-3.885,3.255-8.26,8.505t-6.58,8.715z M64.89845,34.5525q0.4725,0.3325,0.4725,0.7875t-0.4375,0.7875t-0.9625,0.3325t-0.9625-0.385t-0.4375-0.875q0-0.98,1.33-0.98q0.525,0,0.9975,0.3325z M57.56595,48.885q-1.785,0-1.785-2.31q0-1.89,2.065-5.2325t3.325-3.3775q0.35,0,0.7875,0.28t0.4375,0.56q-0.175,0.245-0.42,0.5425t-0.525,0.6475t-0.77,0.9975t-0.945,1.2425q-2.625,3.395-2.625,4.6725t0.875,1.2775q0.735,0,1.995-0.805q2.94-1.82,4.655-3.99q0.63-0.805,0.8575-0.805t0.2275,0.28t-0.805,1.12t-1.2775,1.33t-0.6475,0.6475t-0.6475,0.595t-0.7175,0.6125t-0.7,0.525t-0.805,0.5075t-0.805,0.3675q-0.735,0.315-1.75,0.315z M77.3819,38.035l0.49-0.105q0.385,0,0.735,0.315t0.35,0.49t-2.17,3.3775t-2.17,4.4625q0,0.105,0.035,0.21q0.175,0.805,0.77,0.805q1.82,0,6.65-6.02q0.105-0.14,0.245-0.14t0.14,0.2625t-0.315,0.6825q-4.48,5.985-6.825,5.985q-0.315,0-0.595-0.105q-1.54-0.595-1.54-2.31q0-0.595,0.14-1.19l-2.17,2.1q-2.065,1.82-2.9925,1.82t-1.7675-0.595q-0.945-0.7-0.945-1.855q0-2.555,3.57-6.1075t6.545-3.5525q1.155,0,1.54,0.805q0.105,0.28,0.175,0.4725t0.105,0.1925z M66.9169,46.645q0,1.26,0.875,1.26q2.03,0,5.53-4.445l3.71-5.11q-0.28-0.49-0.91-0.49q-2.135,0-5.67,3.3075t-3.535,5.4775z M98.45785,48.08q-2.38,0-2.38-2.205q0-1.26,1.12-3.4475t2.345-3.6925q-2.17,1.05-5.005,3.7975t-3.955,5.7575q-0.175,0.28-0.595,0.28q-0.84,0-0.84-0.945q0.35-1.925,1.575-4.41q0.385-0.805,2.275-4.69q-2.73,1.785-4.6375,3.8325t-3.535,4.1125t-1.8375,2.065q-0.455,0-0.7875-0.42t-0.3325-0.84q0-0.63,1.82-4.62l-2.1,2.205q-0.77,0.77-0.9625,0.77t-0.1925-0.2275t0.28-0.5075q1.295-1.295,2.31-2.59t3.36-4.62q0.385-0.525,1.085-0.525t0.7,0.665q0,0.245-1.855,3.4125t-2.065,3.9725q1.435-1.575,4.305-4.235q4.305-3.99,5.67-3.99q0.42,0,0.77,0.245t0.35,0.5425t-1.365,2.6425q-1.33,2.415-1.47,2.87q3.885-3.255,3.885-3.29q3.29-2.555,4.725-2.555q0.42,0,0.7875,0.2625t0.3675,0.6125q0,0.07-2.275,2.9575t-2.555,4.7425q-0.07,0.63,0.245,0.945t1.1375,0.315t2.415-1.1375t3.2375-3.0625q0.63-0.7,0.8575-0.7t0.2275,0.175q0,0.245-0.315,0.56q-1.715,2.065-3.6925,3.5175t-3.0975,1.4525z M113.9513,34.5525q0.4725,0.3325,0.4725,0.7875t-0.4375,0.7875t-0.9625,0.3325t-0.9625-0.385t-0.4375-0.875q0-0.98,1.33-0.98q0.525,0,0.9975,0.3325z M106.6188,48.885q-1.785,0-1.785-2.31q0-1.89,2.065-5.2325t3.325-3.3775q0.35,0,0.7875,0.28t0.4375,0.56q-0.175,0.245-0.42,0.5425t-0.525,0.6475t-0.77,0.9975t-0.945,1.2425q-2.625,3.395-2.625,4.6725t0.875,1.2775q0.735,0,1.995-0.805q2.94-1.82,4.655-3.99q0.63-0.805,0.8575-0.805t0.2275,0.28t-0.805,1.12t-1.2775,1.33t-0.6475,0.6475t-0.6475,0.595t-0.7175,0.6125t-0.7,0.525t-0.805,0.5075t-0.805,0.3675q-0.735,0.315-1.75,0.315z"/><path fill="#fc006d" d="M139.83475,39.05q-1.75,0-3.255-0.28q0.49,1.54,2.065,6.965q0.49,1.575,1.54,3.185q1.435,2.065,2.66,2.065q1.47,0,2.45-2.975q0.175-0.7,0.3675-0.7t0.28,0.4025t0.0875,0.5425q0,0.875-0.98,2.24q-1.295,1.925-2.835,1.925t-2.835-1.54t-2.5375-5.6175t-1.2425-5.1975q0-0.175,0.035-0.28q-4.2,5.565-6.02,7.35q-4.06,3.955-8.295,3.955q-2.975,0-2.975-2.24q0-1.12,0.7-2.4675t1.715-2.3625t1.785-1.015q0.14,0,0.14,0.07q0,0.175-0.875,0.875t-1.68,1.9775t-0.805,2.3275q0,1.855,2.485,1.855q4.655,0,12.81-10.92q0.455-0.595,0.77-0.84l-0.56-0.21q-0.455,0.175-0.735,0.175q-0.735,0-0.735-0.595q0-0.805,1.085-1.05q0.14-0.035,0.245-0.035q0.63,0,1.47,0.63q3.08-3.43,3.15-3.5q2.555-2.625,3.4475-2.625t0.8925,0.77q0,0.35-0.1575,0.665t-0.3675,0.315q-0.21,0.07-0.21-0.21q0-0.14,0.21-0.42q0.035-0.49-0.315-0.49q-1.12,0-5.425,5.95q1.05,0.07,1.75,0.07q8.12,0,10.15-4.2q0.42-0.91,0.42-1.68q0-1.54-1.4-2.66q-2.24-1.82-7.28-1.82t-10.29,2.555q-6.37,3.115-6.37,7.315q0,1.365,1.715,1.365t3.64-1.26t2.59-2.485q0.245-0.455,0.4725-0.455t0.1225,0.28q-0.665,1.96-2.9575,3.3425t-4.7775,1.3825t-2.485-1.575l0-0.245q0.525-4.585,5.6175-7.7875t12.2675-3.2025q6.685,0,9.485,2.31q1.68,1.4,1.68,3.29q0,0.805-0.385,1.75q-1.085,2.555-4.445,3.7975t-7.07,1.2425z M149.4657,48.955q-0.385,0-0.7-0.105q-2.24-0.63-2.24-2.52q0-2.45,3.08-5.67t5.53-3.22q0.805,0,1.3125,0.4375t0.5075,1.0675q0,1.96-2.9575,3.745t-4.8125,1.785q-0.28,0-0.49-0.07q-0.525,0.945-0.525,1.995q0,1.82,1.7325,1.82t4.4975-2.345q2.135-1.715,3.64-3.64q0.315-0.42,0.5425-0.42t0.2275,0.21t-0.28,0.595q-1.89,2.485-4.55,4.41t-4.515,1.925z M156.0807,38.875q0-0.42-0.8925-0.42t-2.5375,1.365q-2.205,1.82-3.43,3.815q0.21,0.07,0.455,0.07q1.33,0,3.5525-1.4175t2.7825-3.0975q0.07-0.175,0.07-0.315z M164.66165,47.975q-1.015,0.595-2.5025,0.595t-2.275-0.98t-1.3475-3.115q-0.63,0.63-0.875,0.63q-0.175,0-0.175-0.245t0.175-0.42q1.155-1.435,3.92-4.13l4.41-4.13q1.89-1.785,2.24-1.785q1.12,0,1.12,0.84q0,0.42-0.3325,0.8225t-0.49,0.63t-0.3325,0.4375q-0.63,1.085-1.2775,4.48t-0.9975,4.725q2.905-0.035,5.985-3.78q0.35-0.35,0.525-0.35t0.175,0.2275t-0.315,0.6125q-2.03,2.38-3.78,3.325q-1.05,0.525-2.73,0.875z M159.93665,44.09q0,1.19,0.7875,1.9425t1.7675,0.7525t1.505-0.385q0.7-0.385,1.3825-3.22t0.8225-5.005l0.14-1.19q-1.925,1.435-4.1125,3.71t-2.2575,3.01q-0.035,0.21-0.035,0.385z M181.4676,41.08q0,1.225-2.345,4.095q-2.765,3.395-4.725,3.395l-0.56,0q-0.91,0-1.435-0.945q-0.42-0.665-0.42-1.47q0-2.1,3.0625-5.8975t4.9525-3.7975q1.785,0,1.785,1.89q0,0.49-0.175,1.26q0.035,0.105,0.665,0.105t1.925-0.665q-0.035,0.595-2.765,1.715q0.035,0.14,0.035,0.315z M179.1926,39.26q-1.19,0-3.3775,2.8t-2.1875,4.13t0.84,1.33q1.505,0,3.815-2.73t2.31-3.92q-0.56-0.315-1.4-1.61z M190.85355,48.675q-2.625,0-2.625-2.905q0-1.47,0.77-3.22t1.68-2.94q-0.175,0.035-0.455,0.035q-0.84,0-1.4-1.19l-2.59,3.36q-2.17,2.695-2.52,2.695q-0.175,0-0.175-0.14q0-0.35,0.595-1.015q3.045-3.535,4.305-5.985q0.805-3.045,2.03-3.045q0.805,0,0.805,0.7t-0.875,1.785l-0.84,1.12q0,0.735,1.085,0.735q0.63,0,1.4-0.455l0.91-0.56q0.07-0.035,0.35-0.035t0.595,0.35t0.21,0.63l-2.415,3.045q-2.24,2.87-2.24,4.5325t1.54,1.6625q1.61,0,3.955-1.715q1.4-1.015,2.555-2.275q1.085-1.26,1.19-1.26q0.245,0,0.245,0.2625t-0.315,0.6125l-1.12,1.26q-0.945,0.98-2.1,1.89q-2.765,2.065-4.55,2.065z M208.1845,37.23l5.04-0.07q0.105,0.07,0.105,0.105q0,0.315-4.3575,0.875t-4.7075,0.665q-0.665,0.595-2.45,3.5525t-1.785,4.3225q0,1.295,1.785,1.295q0.84,0,2.205-0.525t2.1-0.98q1.96-1.225,4.2-3.605q0.49-0.49,0.665-0.49q0.105,0,0.105,0.21t-0.525,0.84q-1.82,2.24-4.095,3.605q-2.73,1.68-5.215,1.68q-1.085,0-1.7675-0.4725t-0.6825-1.9075t1.26-3.9375t1.925-3.7275q-0.49,0.105-0.84,0.105q-1.015,0-1.015-0.805q0-0.595,0.84-0.84q0.105,0,0.315-0.035l2.03,0q0.63-0.805,1.435-1.855q0.98-1.26,1.33-1.26t0.875,0.28t0.525,0.665t-1.68,2.275q0.91,0.035,2.38,0.035z"/></svg>
